ffmpeg started on 2025-06-09 at 17:59:19
Report written to "D:\Convert\FFMetrics\reports\ssim_report-6.txt"
Log level: 32
Command line:
ffmpeg -hide_banner -nostdin -i "G:\\\xc0\xed\xe8\xec\xe5\\\xce\xed\xe3\xee\xe8\xed\xe3\xe8\\!_30_\xc2\xe5\xf1\xed\xe0_2023\\\xd1\xeb\xe8\xf8\xea\xee\xec \xec\xe8\xeb\xfb\xe9 \xea\xf0\xe8\xe7\xe8\xf1\\Kawaisugi_Crisis_[04]_[AniLibria_TV]_[WEBRip_1080p]_HEVC.mkv" -i "G:\\\xc0\xed\xe8\xec\xe5\\\xce\xed\xe3\xee\xe8\xed\xe3\xe8\\!_30_\xc2\xe5\xf1\xed\xe0_2023\\\xd1\xeb\xe8\xf8\xea\xee\xec \xec\xe8\xeb\xfb\xe9 \xea\xf0\xe8\xe7\xe8\xf1\\Kawaisugi_Crisis_[04]_[AniLibria_TV]_[WEBRip_1080p].mkv" -lavfi "[0:v]settb=AVTB,setpts=PTS-STARTPTS,format=pix_fmts=yuv420p10,fps=24000/1001,scale=1920:1080:flags=bicubic[main];[1:v]settb=AVTB,setpts=PTS-STARTPTS,format=pix_fmts=yuv420p,fps=24000/1001,scale=1920:1080:flags=bicubic[ref];[main][ref]ssim=eof_action=endall:stats_file='D\\:/Convert/FFMetrics/logs/ssim_logfile-6.txt'" -f null -
Input #0, matroska,webm, from 'G:\Аниме\Онгоинги\!_30_Весна_2023\Слишком милый кризис\Kawaisugi_Crisis_[04]_[AniLibria_TV]_[WEBRip_1080p]_HEVC.mkv':
  Metadata:
    ENCODER         : Lavf61.7.100
  Duration: 00:23:42.51, start: -0.021000, bitrate: 941 kb/s
  Stream #0:0(jpn): Video: hevc (Main 10), yuv420p10le(pc, bt709, progressive), 1920x1080 [SAR 1:1 DAR 16:9], 23.98 fps, 23.98 tbr, 1k tbn (default) (forced)
      Metadata:
        ENCODER         : Lavc61.19.100 libx265
        BPS             : 744567
        DURATION        : 00:23:42.504708333
        NUMBER_OF_FRAMES: 34106
        NUMBER_OF_BYTES : 132393736
        _STATISTICS_WRITING_APP: mkvpropedit v66.0.0 ('Josie') 64-bit
        _STATISTICS_WRITING_DATE_UTC: 2025-06-09 13:08:43
        _STATISTICS_TAGS: BPS DURATION NUMBER_OF_FRAMES NUMBER_OF_BYTES
  Stream #0:1(rus): Audio: aac (LC), 48000 Hz, stereo, fltp (default) (forced)
      Metadata:
        title           : AniLibria.TV
        ENCODER         : Lavc61.19.100 aac
        BPS             : 193068
        DURATION        : 00:23:42.400000000
        NUMBER_OF_FRAMES: 66676
        NUMBER_OF_BYTES : 34327526
        _STATISTICS_WRITING_APP: mkvpropedit v66.0.0 ('Josie') 64-bit
        _STATISTICS_WRITING_DATE_UTC: 2025-06-09 13:08:43
        _STATISTICS_TAGS: BPS DURATION NUMBER_OF_FRAMES NUMBER_OF_BYTES
  Stream #0:2(rus): Subtitle: ass (ssa) (default) (forced)
      Metadata:
        title           : Надписи
        BPS             : 0
        DURATION        : 00:00:00.000000000
        NUMBER_OF_FRAMES: 0
        NUMBER_OF_BYTES : 0
        _STATISTICS_WRITING_APP: mkvpropedit v66.0.0 ('Josie') 64-bit
        _STATISTICS_WRITING_DATE_UTC: 2025-06-09 13:08:43
        _STATISTICS_TAGS: BPS DURATION NUMBER_OF_FRAMES NUMBER_OF_BYTES
  Stream #0:3(rus): Subtitle: ass (ssa)
      Metadata:
        title           : Субтитры
        BPS             : 187
        DURATION        : 00:23:38.670000000
        NUMBER_OF_FRAMES: 358
        NUMBER_OF_BYTES : 33291
        _STATISTICS_WRITING_APP: mkvpropedit v66.0.0 ('Josie') 64-bit
        _STATISTICS_WRITING_DATE_UTC: 2025-06-09 13:08:43
        _STATISTICS_TAGS: BPS DURATION NUMBER_OF_FRAMES NUMBER_OF_BYTES
Input #1, matroska,webm, from 'G:\Аниме\Онгоинги\!_30_Весна_2023\Слишком милый кризис\Kawaisugi_Crisis_[04]_[AniLibria_TV]_[WEBRip_1080p].mkv':
  Metadata:
    encoder         : libebml v1.4.2 + libmatroska v1.6.4
    creation_time   : 2025-01-14T16:53:44.000000Z
  Duration: 00:23:42.51, start: 0.000000, bitrate: 1707 kb/s
  Stream #1:0(jpn): Video: h264 (High), yuvj420p(pc, bt709, progressive), 1920x1080 [SAR 1:1 DAR 16:9], 23.98 fps, 23.98 tbr, 1k tbn (default) (forced)
      Metadata:
        BPS             : 1499847
        DURATION        : 00:23:42.505000000
        NUMBER_OF_FRAMES: 34106
        NUMBER_OF_BYTES : 266692506
        _STATISTICS_WRITING_APP: mkvmerge v66.0.0 ('Josie') 64-bit
        _STATISTICS_WRITING_DATE_UTC: 2025-01-14 16:53:44
        _STATISTICS_TAGS: BPS DURATION NUMBER_OF_FRAMES NUMBER_OF_BYTES
  Stream #1:1(rus): Audio: aac (LC), 48000 Hz, stereo, fltp (default) (forced)
      Metadata:
        title           : AniLibria.TV
        BPS             : 192088
        DURATION        : 00:23:42.400000000
        NUMBER_OF_FRAMES: 66675
        NUMBER_OF_BYTES : 34153247
        _STATISTICS_WRITING_APP: mkvmerge v66.0.0 ('Josie') 64-bit
        _STATISTICS_WRITING_DATE_UTC: 2025-01-14 16:53:44
        _STATISTICS_TAGS: BPS DURATION NUMBER_OF_FRAMES NUMBER_OF_BYTES
  Stream #1:2(rus): Subtitle: ass (ssa) (default) (forced)
      Metadata:
        title           : Надписи
        BPS             : 0
        DURATION        : 00:00:00.000000000
        NUMBER_OF_FRAMES: 0
        NUMBER_OF_BYTES : 0
        _STATISTICS_WRITING_APP: mkvmerge v66.0.0 ('Josie') 64-bit
        _STATISTICS_WRITING_DATE_UTC: 2025-01-14 16:53:44
        _STATISTICS_TAGS: BPS DURATION NUMBER_OF_FRAMES NUMBER_OF_BYTES
  Stream #1:3(rus): Subtitle: ass (ssa)
      Metadata:
        title           : Субтитры
        BPS             : 187
        DURATION        : 00:23:38.670000000
        NUMBER_OF_FRAMES: 358
        NUMBER_OF_BYTES : 33291
        _STATISTICS_WRITING_APP: mkvmerge v66.0.0 ('Josie') 64-bit
        _STATISTICS_WRITING_DATE_UTC: 2025-01-14 16:53:44
        _STATISTICS_TAGS: BPS DURATION NUMBER_OF_FRAMES NUMBER_OF_BYTES
  Stream #1:4: Attachment: ttf
      Metadata:
        filename        : TIMES.TTF
        mimetype        : application/x-truetype-font
  Stream #1:5: Attachment: ttf
      Metadata:
        filename        : tt0142m.ttf
        mimetype        : application/x-truetype-font
  Stream #1:6: Attachment: ttf
      Metadata:
        filename        : ARIAL.TTF
        mimetype        : application/x-truetype-font
Stream mapping:
  Stream #0:0 (hevc) -> settb:default
  Stream #1:0 (h264) -> settb:default
  ssim:default -> Stream #0:0 (wrapped_avframe)
  Stream #0:1 -> #0:1 (aac (native) -> pcm_s16le (native))
[swscaler @ 0000018223011180] deprecated pixel format used, make sure you did set range correctly
Output #0, null, to 'pipe:':
  Metadata:
    encoder         : Lavf61.7.100
  Stream #0:0: Video: wrapped_avframe, yuv420p10le(pc, bt709, progressive), 1920x1080 [SAR 1:1 DAR 16:9], q=2-31, 200 kb/s, 23.98 fps, 23.98 tbn
      Metadata:
        encoder         : Lavc61.19.100 wrapped_avframe
  Stream #0:1(rus): Audio: pcm_s16le, 48000 Hz, stereo, s16, 1536 kb/s (default) (forced)
      Metadata:
        title           : AniLibria.TV
        _STATISTICS_TAGS: BPS DURATION NUMBER_OF_FRAMES NUMBER_OF_BYTES
        BPS             : 193068
        DURATION        : 00:23:42.400000000
        NUMBER_OF_FRAMES: 66676
        NUMBER_OF_BYTES : 34327526
        _STATISTICS_WRITING_APP: mkvpropedit v66.0.0 ('Josie') 64-bit
        _STATISTICS_WRITING_DATE_UTC: 2025-06-09 13:08:43
        encoder         : Lavc61.19.100 pcm_s16le
frame=  212 fps=0.0 q=-0.0 size=N/A time=00:00:08.84 bitrate=N/A speed=17.5x    frame=  449 fps=435 q=-0.0 size=N/A time=00:00:18.72 bitrate=N/A speed=18.1x    frame=  690 fps=448 q=-0.0 size=N/A time=00:00:28.77 bitrate=N/A speed=18.7x    frame=  934 fps=455 q=-0.0 size=N/A time=00:00:38.95 bitrate=N/A speed=  19x    frame= 1178 fps=458 q=-0.0 size=N/A time=00:00:49.13 bitrate=N/A speed=19.1x    frame= 1419 fps=460 q=-0.0 size=N/A time=00:00:59.18 bitrate=N/A speed=19.2x    frame= 1628 fps=452 q=-0.0 size=N/A time=00:01:07.90 bitrate=N/A speed=18.8x    frame= 1838 fps=447 q=-0.0 size=N/A time=00:01:16.65 bitrate=N/A speed=18.6x    frame= 2093 fps=451 q=-0.0 size=N/A time=00:01:27.29 bitrate=N/A speed=18.8x    frame= 2348 fps=456 q=-0.0 size=N/A time=00:01:37.93 bitrate=N/A speed=  19x    frame= 2568 fps=454 q=-0.0 size=N/A time=00:01:47.10 bitrate=N/A speed=18.9x    frame= 2807 fps=454 q=-0.0 size=N/A time=00:01:57.07 bitrate=N/A speed=18.9x    frame= 3043 fps=454 q=-0.0 size=N/A time=00:02:06.91 bitrate=N/A speed=18.9x    frame= 3259 fps=452 q=-0.0 size=N/A time=00:02:15.92 bitrate=N/A speed=18.9x    frame= 3493 fps=452 q=-0.0 size=N/A time=00:02:25.68 bitrate=N/A speed=18.8x    frame= 3727 fps=452 q=-0.0 size=N/A time=00:02:35.44 bitrate=N/A speed=18.9x    frame= 3977 fps=454 q=-0.0 size=N/A time=00:02:45.87 bitrate=N/A speed=  19x    frame= 4220 fps=455 q=-0.0 size=N/A time=00:02:56.00 bitrate=N/A speed=  19x    frame= 4336 fps=443 q=-0.0 size=N/A time=00:03:00.84 bitrate=N/A speed=18.5x    frame= 4518 fps=438 q=-0.0 size=N/A time=00:03:08.43 bitrate=N/A speed=18.3x    frame= 4731 fps=437 q=-0.0 size=N/A time=00:03:17.32 bitrate=N/A speed=18.2x    frame= 4981 fps=440 q=-0.0 size=N/A time=00:03:27.74 bitrate=N/A speed=18.3x    frame= 5242 fps=442 q=-0.0 size=N/A time=00:03:38.63 bitrate=N/A speed=18.4x    frame= 5472 fps=443 q=-0.0 size=N/A time=00:03:48.22 bitrate=N/A speed=18.5x    frame= 5733 fps=445 q=-0.0 size=N/A time=00:03:59.11 bitrate=N/A speed=18.6x    frame= 5992 fps=447 q=-0.0 size=N/A time=00:04:09.91 bitrate=N/A speed=18.7x    frame= 6227 fps=447 q=-0.0 size=N/A time=00:04:19.71 bitrate=N/A speed=18.7x    frame= 6477 fps=448 q=-0.0 size=N/A time=00:04:30.14 bitrate=N/A speed=18.7x    frame= 6748 fps=451 q=-0.0 size=N/A time=00:04:41.44 bitrate=N/A speed=18.8x    frame= 6994 fps=451 q=-0.0 size=N/A time=00:04:51.70 bitrate=N/A speed=18.8x    frame= 7235 fps=452 q=-0.0 size=N/A time=00:05:01.75 bitrate=N/A speed=18.9x    frame= 7429 fps=449 q=-0.0 size=N/A time=00:05:09.85 bitrate=N/A speed=18.7x    frame= 7678 fps=451 q=-0.0 size=N/A time=00:05:20.23 bitrate=N/A speed=18.8x    frame= 7923 fps=451 q=-0.0 size=N/A time=00:05:30.45 bitrate=N/A speed=18.8x    frame= 8136 fps=450 q=-0.0 size=N/A time=00:05:39.33 bitrate=N/A speed=18.8x    frame= 8393 fps=452 q=-0.0 size=N/A time=00:05:50.05 bitrate=N/A speed=18.8x    frame= 8662 fps=454 q=-0.0 size=N/A time=00:06:01.27 bitrate=N/A speed=18.9x    frame= 8902 fps=454 q=-0.0 size=N/A time=00:06:11.28 bitrate=N/A speed=18.9x    frame= 9155 fps=455 q=-0.0 size=N/A time=00:06:21.83 bitrate=N/A speed=  19x    frame= 9396 fps=455 q=-0.0 size=N/A time=00:06:31.89 bitrate=N/A speed=  19x    frame= 9627 fps=455 q=-0.0 size=N/A time=00:06:41.52 bitrate=N/A speed=  19x    frame= 9890 fps=456 q=-0.0 size=N/A time=00:06:52.49 bitrate=N/A speed=  19x    frame=10145 fps=457 q=-0.0 size=N/A time=00:07:03.13 bitrate=N/A speed=19.1x    frame=10421 fps=459 q=-0.0 size=N/A time=00:07:14.64 bitrate=N/A speed=19.1x    frame=10681 fps=460 q=-0.0 size=N/A time=00:07:25.48 bitrate=N/A speed=19.2x    frame=10950 fps=461 q=-0.0 size=N/A time=00:07:36.70 bitrate=N/A speed=19.2x    frame=11188 fps=461 q=-0.0 size=N/A time=00:07:46.63 bitrate=N/A speed=19.2x    frame=11437 fps=462 q=-0.0 size=N/A time=00:07:57.01 bitrate=N/A speed=19.3x    frame=11692 fps=462 q=-0.0 size=N/A time=00:08:07.65 bitrate=N/A speed=19.3x    frame=11963 fps=463 q=-0.0 size=N/A time=00:08:18.95 bitrate=N/A speed=19.3x    frame=12204 fps=464 q=-0.0 size=N/A time=00:08:29.00 bitrate=N/A speed=19.3x    frame=12467 fps=465 q=-0.0 size=N/A time=00:08:39.97 bitrate=N/A speed=19.4x    frame=12728 fps=465 q=-0.0 size=N/A time=00:08:50.86 bitrate=N/A speed=19.4x    frame=12985 fps=466 q=-0.0 size=N/A time=00:09:01.58 bitrate=N/A speed=19.4x    frame=13226 fps=466 q=-0.0 size=N/A time=00:09:11.63 bitrate=N/A speed=19.4x    frame=13486 fps=467 q=-0.0 size=N/A time=00:09:22.47 bitrate=N/A speed=19.5x    frame=13740 fps=467 q=-0.0 size=N/A time=00:09:33.07 bitrate=N/A speed=19.5x    frame=13985 fps=467 q=-0.0 size=N/A time=00:09:43.29 bitrate=N/A speed=19.5x    frame=14239 fps=468 q=-0.0 size=N/A time=00:09:53.88 bitrate=N/A speed=19.5x    frame=14472 fps=467 q=-0.0 size=N/A time=00:10:03.60 bitrate=N/A speed=19.5x    frame=14725 fps=468 q=-0.0 size=N/A time=00:10:14.15 bitrate=N/A speed=19.5x    frame=14984 fps=468 q=-0.0 size=N/A time=00:10:24.95 bitrate=N/A speed=19.5x    frame=15254 fps=469 q=-0.0 size=N/A time=00:10:36.21 bitrate=N/A speed=19.6x    frame=15502 fps=470 q=-0.0 size=N/A time=00:10:46.56 bitrate=N/A speed=19.6x    frame=15767 fps=470 q=-0.0 size=N/A time=00:10:57.61 bitrate=N/A speed=19.6x    frame=16024 fps=471 q=-0.0 size=N/A time=00:11:08.33 bitrate=N/A speed=19.6x    frame=16292 fps=471 q=-0.0 size=N/A time=00:11:19.51 bitrate=N/A speed=19.7x    frame=16549 fps=472 q=-0.0 size=N/A time=00:11:30.23 bitrate=N/A speed=19.7x    frame=16764 fps=471 q=-0.0 size=N/A time=00:11:39.19 bitrate=N/A speed=19.6x    frame=17006 fps=471 q=-0.0 size=N/A time=00:11:49.29 bitrate=N/A speed=19.6x    frame=17243 fps=471 q=-0.0 size=N/A time=00:11:59.17 bitrate=N/A speed=19.6x    frame=17497 fps=471 q=-0.0 size=N/A time=00:12:09.77 bitrate=N/A speed=19.6x    frame=17755 fps=471 q=-0.0 size=N/A time=00:12:20.53 bitrate=N/A speed=19.7x    frame=18013 fps=472 q=-0.0 size=N/A time=00:12:31.29 bitrate=N/A speed=19.7x    frame=18272 fps=472 q=-0.0 size=N/A time=00:12:42.09 bitrate=N/A speed=19.7x    frame=18511 fps=472 q=-0.0 size=N/A time=00:12:52.06 bitrate=N/A speed=19.7x    frame=18732 fps=471 q=-0.0 size=N/A time=00:13:01.28 bitrate=N/A speed=19.7x    frame=18965 fps=471 q=-0.0 size=N/A time=00:13:10.99 bitrate=N/A speed=19.7x    frame=19193 fps=471 q=-0.0 size=N/A time=00:13:20.50 bitrate=N/A speed=19.6x    frame=19437 fps=471 q=-0.0 size=N/A time=00:13:30.68 bitrate=N/A speed=19.6x    frame=19701 fps=471 q=-0.0 size=N/A time=00:13:41.69 bitrate=N/A speed=19.7x    frame=19951 fps=472 q=-0.0 size=N/A time=00:13:52.12 bitrate=N/A speed=19.7x    frame=20187 fps=471 q=-0.0 size=N/A time=00:14:01.96 bitrate=N/A speed=19.7x    frame=20418 fps=471 q=-0.0 size=N/A time=00:14:11.60 bitrate=N/A speed=19.7x    frame=20662 fps=471 q=-0.0 size=N/A time=00:14:21.77 bitrate=N/A speed=19.6x    frame=20912 fps=471 q=-0.0 size=N/A time=00:14:32.20 bitrate=N/A speed=19.7x    frame=21177 fps=472 q=-0.0 size=N/A time=00:14:43.25 bitrate=N/A speed=19.7x    frame=21427 fps=472 q=-0.0 size=N/A time=00:14:53.68 bitrate=N/A speed=19.7x    frame=21695 fps=473 q=-0.0 size=N/A time=00:15:04.86 bitrate=N/A speed=19.7x    frame=21916 fps=472 q=-0.0 size=N/A time=00:15:14.07 bitrate=N/A speed=19.7x    frame=22157 fps=472 q=-0.0 size=N/A time=00:15:24.13 bitrate=N/A speed=19.7x    frame=22425 fps=472 q=-0.0 size=N/A time=00:15:35.30 bitrate=N/A speed=19.7x    frame=22690 fps=473 q=-0.0 size=N/A time=00:15:46.36 bitrate=N/A speed=19.7x    frame=22924 fps=473 q=-0.0 size=N/A time=00:15:56.12 bitrate=N/A speed=19.7x    frame=23150 fps=472 q=-0.0 size=N/A time=00:16:05.54 bitrate=N/A speed=19.7x    frame=23371 fps=472 q=-0.0 size=N/A time=00:16:14.76 bitrate=N/A speed=19.7x    frame=23569 fps=471 q=-0.0 size=N/A time=00:16:23.02 bitrate=N/A speed=19.6x    frame=23812 fps=471 q=-0.0 size=N/A time=00:16:33.15 bitrate=N/A speed=19.6x    frame=24074 fps=471 q=-0.0 size=N/A time=00:16:44.08 bitrate=N/A speed=19.7x    frame=24335 fps=472 q=-0.0 size=N/A time=00:16:54.97 bitrate=N/A speed=19.7x    frame=24566 fps=471 q=-0.0 size=N/A time=00:17:04.60 bitrate=N/A speed=19.7x    frame=24812 fps=471 q=-0.0 size=N/A time=00:17:14.86 bitrate=N/A speed=19.7x    frame=25067 fps=472 q=-0.0 size=N/A time=00:17:25.50 bitrate=N/A speed=19.7x    frame=25311 fps=472 q=-0.0 size=N/A time=00:17:35.67 bitrate=N/A speed=19.7x    frame=25578 fps=472 q=-0.0 size=N/A time=00:17:46.81 bitrate=N/A speed=19.7x    frame=25791 fps=472 q=-0.0 size=N/A time=00:17:55.69 bitrate=N/A speed=19.7x    frame=26065 fps=472 q=-0.0 size=N/A time=00:18:07.12 bitrate=N/A speed=19.7x    frame=26326 fps=472 q=-0.0 size=N/A time=00:18:18.01 bitrate=N/A speed=19.7x    frame=26565 fps=472 q=-0.0 size=N/A time=00:18:27.98 bitrate=N/A speed=19.7x    frame=26820 fps=472 q=-0.0 size=N/A time=00:18:38.61 bitrate=N/A speed=19.7x    frame=27071 fps=473 q=-0.0 size=N/A time=00:18:49.08 bitrate=N/A speed=19.7x    frame=27329 fps=473 q=-0.0 size=N/A time=00:18:59.84 bitrate=N/A speed=19.7x    frame=27576 fps=473 q=-0.0 size=N/A time=00:19:10.14 bitrate=N/A speed=19.7x    frame=27817 fps=473 q=-0.0 size=N/A time=00:19:20.20 bitrate=N/A speed=19.7x    frame=28061 fps=473 q=-0.0 size=N/A time=00:19:30.37 bitrate=N/A speed=19.7x    frame=28310 fps=473 q=-0.0 size=N/A time=00:19:40.76 bitrate=N/A speed=19.7x    frame=28567 fps=473 q=-0.0 size=N/A time=00:19:51.48 bitrate=N/A speed=19.7x    frame=28822 fps=473 q=-0.0 size=N/A time=00:20:02.11 bitrate=N/A speed=19.7x    frame=29077 fps=473 q=-0.0 size=N/A time=00:20:12.75 bitrate=N/A speed=19.7x    frame=29318 fps=473 q=-0.0 size=N/A time=00:20:22.80 bitrate=N/A speed=19.7x    frame=29565 fps=473 q=-0.0 size=N/A time=00:20:33.10 bitrate=N/A speed=19.7x    frame=29766 fps=473 q=-0.0 size=N/A time=00:20:41.49 bitrate=N/A speed=19.7x    frame=29870 fps=470 q=-0.0 size=N/A time=00:20:45.82 bitrate=N/A speed=19.6x    frame=30112 fps=471 q=-0.0 size=N/A time=00:20:55.92 bitrate=N/A speed=19.6x    frame=30374 fps=471 q=-0.0 size=N/A time=00:21:06.84 bitrate=N/A speed=19.6x    frame=30628 fps=471 q=-0.0 size=N/A time=00:21:17.44 bitrate=N/A speed=19.6x    frame=30863 fps=471 q=-0.0 size=N/A time=00:21:27.24 bitrate=N/A speed=19.6x    frame=31105 fps=471 q=-0.0 size=N/A time=00:21:37.33 bitrate=N/A speed=19.6x    frame=31346 fps=471 q=-0.0 size=N/A time=00:21:47.38 bitrate=N/A speed=19.6x    frame=31588 fps=471 q=-0.0 size=N/A time=00:21:57.48 bitrate=N/A speed=19.6x    frame=31762 fps=470 q=-0.0 size=N/A time=00:22:04.74 bitrate=N/A speed=19.6x    frame=31973 fps=469 q=-0.0 size=N/A time=00:22:13.54 bitrate=N/A speed=19.6x    frame=32129 fps=468 q=-0.0 size=N/A time=00:22:20.04 bitrate=N/A speed=19.5x    frame=32297 fps=467 q=-0.0 size=N/A time=00:22:27.05 bitrate=N/A speed=19.5x    frame=32456 fps=466 q=-0.0 size=N/A time=00:22:33.68 bitrate=N/A speed=19.4x    frame=32611 fps=465 q=-0.0 size=N/A time=00:22:40.15 bitrate=N/A speed=19.4x    frame=32760 fps=463 q=-0.0 size=N/A time=00:22:46.36 bitrate=N/A speed=19.3x    frame=32924 fps=462 q=-0.0 size=N/A time=00:22:53.20 bitrate=N/A speed=19.3x    frame=33080 fps=461 q=-0.0 size=N/A time=00:22:59.71 bitrate=N/A speed=19.2x    frame=33270 fps=461 q=-0.0 size=N/A time=00:23:07.63 bitrate=N/A speed=19.2x    frame=33468 fps=460 q=-0.0 size=N/A time=00:23:15.89 bitrate=N/A speed=19.2x    frame=33706 fps=460 q=-0.0 size=N/A time=00:23:25.82 bitrate=N/A speed=19.2x    frame=33928 fps=460 q=-0.0 size=N/A time=00:23:35.08 bitrate=N/A speed=19.2x    [Parsed_ssim_10 @ 0000018222e44fc0] SSIM Y:0.995363 (23.337843) U:0.996183 (24.182601) V:0.996061 (24.046054) All:0.995616 (23.581407)
[out#0/null @ 000001820c3aca40] video:14654KiB audio:266704KiB subtitle:0KiB other streams:0KiB global headers:0KiB muxing overhead: unknown
frame=34105 fps=460 q=-0.0 Lsize=N/A time=00:23:42.42 bitrate=N/A speed=19.2x    
